{
	"asset":{
		"generator":"Khronos glTF Blender I/O v4.0.44",
		"version":"2.0"
	},
	"extensionsUsed":[
		"KHR_materials_emissive_strength"
	],
	"scene":0,
	"scenes":[
		{
			"name":"Scene",
			"nodes":[
				0,
				1,
				2,
				3
			]
		}
	],
	"nodes":[
		{
			"mesh":0,
			"name":"station",
			"translation":[
				-0.23572207987308502,
				1.0094308853149414,
				0
			]
		},
		{
			"mesh":1,
			"name":"building",
			"rotation":[
				-0.04361942782998085,
				0,
				0.9990482926368713,
				3.2931752880216436e-09
			],
			"scale":[
				7.8000006675720215,
				7.800000190734863,
				7.8000006675720215
			]
		},
		{
			"mesh":2,
			"name":"light",
			"scale":[
				0.3030643165111542,
				1,
				0.9096896648406982
			],
			"translation":[
				-0.10578657686710358,
				1.7951785326004028,
				0
			]
		},
		{
			"name":"IrradianceVolume",
			"scale":[
				6.350067615509033,
				1.9752516746520996,
				7.356359481811523
			],
			"translation":[
				0.5664656758308411,
				2.1976654529571533,
				0
			]
		}
	],
	"materials":[
		{
			"name":"Granite",
			"occlusionTexture":{
				"index":0,
				"texCoord":1
			},
			"pbrMetallicRoughness":{
				"baseColorTexture":{
					"index":1
				},
				"metallicFactor":0
			}
		},
		{
			"name":"Bricks",
			"occlusionTexture":{
				"index":2,
				"texCoord":1
			},
			"pbrMetallicRoughness":{
				"baseColorTexture":{
					"index":3
				},
				"metallicFactor":0
			}
		},
		{
			"name":"asfalt",
			"occlusionTexture":{
				"index":4,
				"texCoord":1
			},
			"pbrMetallicRoughness":{
				"baseColorTexture":{
					"index":5
				},
				"metallicFactor":0
			}
		},
		{
			"name":"roof",
			"occlusionTexture":{
				"index":6,
				"texCoord":1
			},
			"pbrMetallicRoughness":{
				"baseColorTexture":{
					"index":7
				},
				"metallicFactor":0
			}
		},
		{
			"name":"doors",
			"occlusionTexture":{
				"index":8,
				"texCoord":1
			},
			"pbrMetallicRoughness":{
				"baseColorTexture":{
					"index":9
				},
				"metallicFactor":0
			}
		},
		{
			"doubleSided":true,
			"emissiveFactor":[
				5.084004998207092,
				5.621176362037659,
				10
			],
			"extensions":{
				"KHR_materials_emissive_strength":{
					"emissiveStrength":1
				}
			},
			"name":"light",
			"pbrMetallicRoughness":{
				"baseColorFactor":[
					0.800000011920929,
					0.800000011920929,
					0.800000011920929,
					1
				],
				"metallicFactor":0,
				"roughnessFactor":0.5
			}
		}
	],
	"meshes":[
		{
			"name":"Cube",
			"primitives":[
				{
					"attributes":{
						"POSITION":0,
						"NORMAL":1,
						"TEXCOORD_0":2,
						"TEXCOORD_1":3
					},
					"indices":4,
					"material":0
				}
			]
		},
		{
			"name":"Plane",
			"primitives":[
				{
					"attributes":{
						"POSITION":5,
						"NORMAL":6,
						"TEXCOORD_0":7,
						"TEXCOORD_1":8
					},
					"indices":9,
					"material":1
				},
				{
					"attributes":{
						"POSITION":10,
						"NORMAL":11,
						"TEXCOORD_0":12,
						"TEXCOORD_1":13
					},
					"indices":14,
					"material":0
				},
				{
					"attributes":{
						"POSITION":15,
						"NORMAL":16,
						"TEXCOORD_0":17,
						"TEXCOORD_1":18
					},
					"indices":19,
					"material":2
				},
				{
					"attributes":{
						"POSITION":20,
						"NORMAL":21,
						"TEXCOORD_0":22,
						"TEXCOORD_1":23
					},
					"indices":24,
					"material":3
				},
				{
					"attributes":{
						"POSITION":25,
						"NORMAL":26,
						"TEXCOORD_0":27,
						"TEXCOORD_1":28
					},
					"indices":29,
					"material":4
				}
			]
		},
		{
			"name":"Plane.001",
			"primitives":[
				{
					"attributes":{
						"POSITION":30,
						"NORMAL":31,
						"TEXCOORD_0":32
					},
					"indices":33,
					"material":5
				}
			]
		}
	],
	"textures":[
		{
			"sampler":0,
			"source":0
		},
		{
			"sampler":0,
			"source":1
		},
		{
			"sampler":0,
			"source":0
		},
		{
			"sampler":0,
			"source":2
		},
		{
			"sampler":0,
			"source":0
		},
		{
			"sampler":0,
			"source":3
		},
		{
			"sampler":0,
			"source":0
		},
		{
			"sampler":0,
			"source":4
		},
		{
			"sampler":0,
			"source":0
		},
		{
			"sampler":0,
			"source":5
		}
	],
	"images":[
		{
			"mimeType":"image/png",
			"name":"lightmap",
			"uri":"lightmap.png"
		},
		{
			"mimeType":"image/png",
			"name":"granite",
			"uri":"granite.png"
		},
		{
			"mimeType":"image/png",
			"name":"bricks",
			"uri":"bricks.png"
		},
		{
			"mimeType":"image/png",
			"name":"road",
			"uri":"road.png"
		},
		{
			"mimeType":"image/png",
			"name":"roof",
			"uri":"roof.png"
		},
		{
			"mimeType":"image/png",
			"name":"doors",
			"uri":"doors.png"
		}
	],
	"accessors":[
		{
			"bufferView":0,
			"componentType":5126,
			"count":114,
			"max":[
				0.5404311418533325,
				1,
				1
			],
			"min":[
				-1,
				-1,
				-1
			],
			"type":"VEC3"
		},
		{
			"bufferView":1,
			"componentType":5126,
			"count":114,
			"type":"VEC3"
		},
		{
			"bufferView":2,
			"componentType":5126,
			"count":114,
			"type":"VEC2"
		},
		{
			"bufferView":3,
			"componentType":5126,
			"count":114,
			"type":"VEC2"
		},
		{
			"bufferView":4,
			"componentType":5123,
			"count":228,
			"type":"SCALAR"
		},
		{
			"bufferView":5,
			"componentType":5126,
			"count":46,
			"max":[
				0.492740273475647,
				0,
				1
			],
			"min":[
				0.40875673294067383,
				-0.601291835308075,
				-1
			],
			"type":"VEC3"
		},
		{
			"bufferView":6,
			"componentType":5126,
			"count":46,
			"type":"VEC3"
		},
		{
			"bufferView":7,
			"componentType":5126,
			"count":46,
			"type":"VEC2"
		},
		{
			"bufferView":8,
			"componentType":5126,
			"count":46,
			"type":"VEC2"
		},
		{
			"bufferView":9,
			"componentType":5123,
			"count":96,
			"type":"SCALAR"
		},
		{
			"bufferView":10,
			"componentType":5126,
			"count":128,
			"max":[
				0.761898398399353,
				0.06949885189533234,
				1
			],
			"min":[
				-0.7961270213127136,
				-0.6746243834495544,
				-1
			],
			"type":"VEC3"
		},
		{
			"bufferView":11,
			"componentType":5126,
			"count":128,
			"type":"VEC3"
		},
		{
			"bufferView":12,
			"componentType":5126,
			"count":128,
			"type":"VEC2"
		},
		{
			"bufferView":13,
			"componentType":5126,
			"count":128,
			"type":"VEC2"
		},
		{
			"bufferView":14,
			"componentType":5123,
			"count":288,
			"type":"SCALAR"
		},
		{
			"bufferView":15,
			"componentType":5126,
			"count":12,
			"max":[
				-0.0015652659349143505,
				0.022906159982085228,
				1
			],
			"min":[
				-0.6144877672195435,
				0.022906159982085228,
				-1
			],
			"type":"VEC3"
		},
		{
			"bufferView":16,
			"componentType":5126,
			"count":12,
			"type":"VEC3"
		},
		{
			"bufferView":17,
			"componentType":5126,
			"count":12,
			"type":"VEC2"
		},
		{
			"bufferView":18,
			"componentType":5126,
			"count":12,
			"type":"VEC2"
		},
		{
			"bufferView":19,
			"componentType":5123,
			"count":30,
			"type":"SCALAR"
		},
		{
			"bufferView":20,
			"componentType":5126,
			"count":24,
			"max":[
				0.8494070768356323,
				-0.5725127458572388,
				1.0000407695770264
			],
			"min":[
				0.40875673294067383,
				-0.8528287410736084,
				-1
			],
			"type":"VEC3"
		},
		{
			"bufferView":21,
			"componentType":5126,
			"count":24,
			"type":"VEC3"
		},
		{
			"bufferView":22,
			"componentType":5126,
			"count":24,
			"type":"VEC2"
		},
		{
			"bufferView":23,
			"componentType":5126,
			"count":24,
			"type":"VEC2"
		},
		{
			"bufferView":24,
			"componentType":5123,
			"count":60,
			"type":"SCALAR"
		},
		{
			"bufferView":25,
			"componentType":5126,
			"count":12,
			"max":[
				0.761898398399353,
				0.06949885189533234,
				0.7469767928123474
			],
			"min":[
				0.4817282259464264,
				-0.2926759421825409,
				-0.6012150645256042
			],
			"type":"VEC3"
		},
		{
			"bufferView":26,
			"componentType":5126,
			"count":12,
			"type":"VEC3"
		},
		{
			"bufferView":27,
			"componentType":5126,
			"count":12,
			"type":"VEC2"
		},
		{
			"bufferView":28,
			"componentType":5126,
			"count":12,
			"type":"VEC2"
		},
		{
			"bufferView":29,
			"componentType":5123,
			"count":18,
			"type":"SCALAR"
		},
		{
			"bufferView":30,
			"componentType":5126,
			"count":4,
			"max":[
				1,
				0,
				1
			],
			"min":[
				-1,
				0,
				-1
			],
			"type":"VEC3"
		},
		{
			"bufferView":31,
			"componentType":5126,
			"count":4,
			"type":"VEC3"
		},
		{
			"bufferView":32,
			"componentType":5126,
			"count":4,
			"type":"VEC2"
		},
		{
			"bufferView":33,
			"componentType":5123,
			"count":6,
			"type":"SCALAR"
		}
	],
	"bufferViews":[
		{
			"buffer":0,
			"byteLength":1368,
			"byteOffset":0,
			"target":34962
		},
		{
			"buffer":0,
			"byteLength":1368,
			"byteOffset":1368,
			"target":34962
		},
		{
			"buffer":0,
			"byteLength":912,
			"byteOffset":2736,
			"target":34962
		},
		{
			"buffer":0,
			"byteLength":912,
			"byteOffset":3648,
			"target":34962
		},
		{
			"buffer":0,
			"byteLength":456,
			"byteOffset":4560,
			"target":34963
		},
		{
			"buffer":0,
			"byteLength":552,
			"byteOffset":5016,
			"target":34962
		},
		{
			"buffer":0,
			"byteLength":552,
			"byteOffset":5568,
			"target":34962
		},
		{
			"buffer":0,
			"byteLength":368,
			"byteOffset":6120,
			"target":34962
		},
		{
			"buffer":0,
			"byteLength":368,
			"byteOffset":6488,
			"target":34962
		},
		{
			"buffer":0,
			"byteLength":192,
			"byteOffset":6856,
			"target":34963
		},
		{
			"buffer":0,
			"byteLength":1536,
			"byteOffset":7048,
			"target":34962
		},
		{
			"buffer":0,
			"byteLength":1536,
			"byteOffset":8584,
			"target":34962
		},
		{
			"buffer":0,
			"byteLength":1024,
			"byteOffset":10120,
			"target":34962
		},
		{
			"buffer":0,
			"byteLength":1024,
			"byteOffset":11144,
			"target":34962
		},
		{
			"buffer":0,
			"byteLength":576,
			"byteOffset":12168,
			"target":34963
		},
		{
			"buffer":0,
			"byteLength":144,
			"byteOffset":12744,
			"target":34962
		},
		{
			"buffer":0,
			"byteLength":144,
			"byteOffset":12888,
			"target":34962
		},
		{
			"buffer":0,
			"byteLength":96,
			"byteOffset":13032,
			"target":34962
		},
		{
			"buffer":0,
			"byteLength":96,
			"byteOffset":13128,
			"target":34962
		},
		{
			"buffer":0,
			"byteLength":60,
			"byteOffset":13224,
			"target":34963
		},
		{
			"buffer":0,
			"byteLength":288,
			"byteOffset":13284,
			"target":34962
		},
		{
			"buffer":0,
			"byteLength":288,
			"byteOffset":13572,
			"target":34962
		},
		{
			"buffer":0,
			"byteLength":192,
			"byteOffset":13860,
			"target":34962
		},
		{
			"buffer":0,
			"byteLength":192,
			"byteOffset":14052,
			"target":34962
		},
		{
			"buffer":0,
			"byteLength":120,
			"byteOffset":14244,
			"target":34963
		},
		{
			"buffer":0,
			"byteLength":144,
			"byteOffset":14364,
			"target":34962
		},
		{
			"buffer":0,
			"byteLength":144,
			"byteOffset":14508,
			"target":34962
		},
		{
			"buffer":0,
			"byteLength":96,
			"byteOffset":14652,
			"target":34962
		},
		{
			"buffer":0,
			"byteLength":96,
			"byteOffset":14748,
			"target":34962
		},
		{
			"buffer":0,
			"byteLength":36,
			"byteOffset":14844,
			"target":34963
		},
		{
			"buffer":0,
			"byteLength":48,
			"byteOffset":14880,
			"target":34962
		},
		{
			"buffer":0,
			"byteLength":48,
			"byteOffset":14928,
			"target":34962
		},
		{
			"buffer":0,
			"byteLength":32,
			"byteOffset":14976,
			"target":34962
		},
		{
			"buffer":0,
			"byteLength":12,
			"byteOffset":15008,
			"target":34963
		}
	],
	"samplers":[
		{
			"magFilter":9729,
			"minFilter":9987
		}
	],
	"buffers":[
		{
			"byteLength":15020,
			"uri":"street_irradiance.bin"
		}
	]
}
